<?xml version="1.0" standalone="no"?>
<!DOCTYPE svg PUBLIC "-//W3C//DTD SVG 20010904//EN"
 "http://www.w3.org/TR/2001/REC-SVG-20010904/DTD/svg10.dtd">
<svg version="1.0" xmlns="http://www.w3.org/2000/svg"
 width="200.000000pt" height="200.000000pt" viewBox="0 0 200.000000 200.000000"
 preserveAspectRatio="xMidYMid meet">

<g transform="translate(0.000000,200.000000) scale(0.100000,-0.100000)"
fill="#000000" stroke="none">
<path d="M975 1680 c-9 -18 -26 -32 -43 -36 -56 -12 -57 -13 -27 -44 23 -24
26 -34 21 -63 -8 -43 -1 -49 38 -30 30 14 36 14 64 -1 43 -22 44 -21 41 24 -2
29 2 45 19 63 27 29 28 47 3 47 -33 0 -51 11 -67 41 -19 37 -30 37 -49 -1z"/>
<path d="M830 1108 l0 -201 25 23 25 24 -2 169 c-3 166 -4 170 -25 178 l-23 8
0 -201z"/>
<path d="M1123 1300 c-23 -9 -23 -13 -23 -173 0 -161 0 -164 25 -187 l25 -23
0 196 c0 108 -1 197 -2 196 -2 0 -13 -4 -25 -9z"/>
<path d="M1134 815 c-4 -9 -2 -21 4 -27 16 -16 47 -5 47 17 0 26 -42 34 -51
10z"/>
<path d="M675 805 c-22 -8 -46 -22 -53 -32 -21 -29 -34 -93 -26 -136 7 -43 50
-97 78 -97 9 0 16 -7 16 -15 0 -8 7 -15 16 -15 10 0 43 -10 75 -21 55 -20 89
-21 89 -1 0 4 -25 16 -55 27 -30 10 -55 20 -55 22 0 2 14 16 32 32 28 25 32
35 36 93 8 120 -54 177 -153 143z m80 -50 c24 -23 29 -47 25 -110 -3 -42 -17
-64 -46 -71 -40 -10 -71 10 -85 55 -16 52 -4 105 28 131 33 26 49 25 78 -5z"/>
<path d="M870 725 c0 -8 5 -15 10 -15 6 0 10 -30 10 -70 0 -99 34 -131 103
-96 15 8 27 11 27 5 0 -5 16 -9 35 -9 35 0 47 16 20 26 -12 5 -15 25 -15 90
l0 84 -35 0 c-24 0 -35 -5 -35 -15 0 -8 5 -15 10 -15 7 0 10 -25 8 -67 -3 -66
-4 -68 -30 -71 -35 -4 -48 25 -48 109 0 59 0 59 -30 59 -20 0 -30 -5 -30 -15z"/>
<path d="M1120 725 c0 -8 5 -15 10 -15 6 0 10 -30 10 -69 0 -52 -4 -70 -15
-75 -32 -12 -13 -26 35 -26 38 0 50 4 50 15 0 8 -4 15 -10 15 -6 0 -10 35 -10
85 l0 85 -35 0 c-24 0 -35 -5 -35 -15z"/>
<path d="M1242 713 c3 -30 38 -47 38 -19 0 11 9 16 30 16 17 0 30 -3 30 -7 0
-5 -23 -37 -50 -72 -28 -35 -50 -70 -50 -77 0 -11 19 -14 85 -14 l85 0 0 30
c0 23 -4 30 -20 30 -11 0 -20 -7 -20 -15 0 -10 -11 -15 -35 -15 -19 0 -35 1
-35 3 0 2 25 37 55 77 30 40 55 77 55 82 0 4 -39 8 -86 8 l-85 0 3 -27z"/>
<path d="M690 455 c0 -8 7 -15 16 -15 9 0 13 -6 11 -12 -3 -7 -20 -55 -37
-106 -18 -51 -38 -96 -46 -99 -8 -3 -14 -11 -14 -19 0 -10 14 -14 50 -14 38 0
50 4 50 15 0 8 -5 15 -11 15 -6 0 -9 10 -7 23 3 19 10 22 49 25 33 2 50 -2 59
-14 12 -14 12 -18 -3 -29 -32 -23 -19 -35 38 -35 40 0 55 4 55 14 0 8 -6 16
-14 19 -7 3 -33 60 -56 126 l-43 121 -48 0 c-37 0 -49 -4 -49 -15z m94 -102
l15 -53 -40 0 c-21 0 -39 3 -39 7 0 21 35 112 41 106 4 -5 14 -32 23 -60z"/>
<path d="M998 394 c-16 -8 -28 -10 -28 -4 0 5 -16 10 -35 10 -24 0 -35 -5 -35
-15 0 -8 7 -15 15 -15 13 0 15 -20 15 -120 0 -73 -4 -120 -10 -120 -5 0 -10
-7 -10 -15 0 -11 12 -15 50 -15 38 0 50 4 50 15 0 8 -7 15 -15 15 -10 0 -15
10 -15 31 0 28 3 31 24 25 82 -21 140 73 105 173 -18 51 -59 64 -111 35z m50
-33 c8 -4 16 -27 19 -49 7 -55 -17 -95 -55 -90 -25 3 -27 6 -30 61 -4 76 22
107 66 78z"/>
<path d="M1242 394 c-12 -8 -22 -10 -22 -5 0 6 -16 11 -35 11 -36 0 -50 -22
-20 -34 12 -4 15 -27 15 -116 0 -89 -3 -112 -15 -116 -8 -4 -15 -12 -15 -20 0
-10 15 -14 55 -14 40 0 55 4 55 14 0 7 -9 16 -20 19 -14 3 -20 14 -20 32 0 24
3 26 28 20 67 -14 112 36 112 125 0 41 -5 56 -25 75 -28 29 -61 32 -93 9z m58
-43 c5 -11 10 -37 10 -59 0 -49 -27 -77 -65 -68 -23 6 -25 11 -25 60 0 58 16
86 50 86 11 0 24 -9 30 -19z"/>
</g>
</svg>
